<svg width="24" height="24" viewBox="0 0 24 24" fill="none" xmlns="http://www.w3.org/2000/svg">
<path d="M1 13V4L2.5 2.5H14L15.5 4V7.5H22L23 8.5V17L22.5 18H20L18.5 20.5L17.5 18H9.5L8.5 17.5V13H6.5L5.5 15L4.5 13H1Z" fill="url(#paint0_linear_55_2792)"/>
<path d="M21.5922 6.89852H16.4542V4.39862C16.4542 3.0727 15.3769 2 14.0556 2H2.39862C1.0727 2 0 3.07731 0 4.39862V11.6912C0 13.0171 1.07731 14.0898 2.39862 14.0898H3.7982L4.80184 16.6403C4.90773 16.9027 5.16094 17.0777 5.44639 17.0777H5.45559C5.74103 17.0777 5.99885 16.8935 6.09553 16.6219L7.0163 14.0898H7.54115V16.5897C7.54115 17.9156 8.61846 18.9883 9.93977 18.9883H16.9837L17.9045 21.5204C18.0012 21.7921 18.259 21.9716 18.5444 21.9762H18.5536C18.8391 21.9762 19.0923 21.8013 19.1982 21.5388L20.2018 18.9883H21.6014C22.9273 18.9883 24 17.911 24 16.5897V9.29714C24 7.97123 22.9227 6.89852 21.6014 6.89852H21.5922ZM6.5283 12.7086C6.23825 12.7086 5.98044 12.8882 5.87915 13.1644L5.41876 14.4351L4.91233 13.146C4.80645 12.8836 4.55323 12.7086 4.26779 12.7086H2.39862C1.83695 12.7086 1.38116 12.2528 1.38116 11.6912V4.39862C1.38116 3.83695 1.83695 3.38116 2.39862 3.38116H14.0556C14.6173 3.38116 15.0731 3.83695 15.0731 4.39862V11.6221C15.0731 12.1838 14.6173 12.6396 14.0556 12.6396H8.22713C8.12124 12.6396 8.01995 12.6672 7.92787 12.7132H6.5329L6.5283 12.7086ZM22.6142 16.5897C22.6142 17.1514 22.1585 17.6071 21.5968 17.6071H19.7276C19.4422 17.6071 19.189 17.7821 19.0831 18.0445L18.5766 19.3336L18.1162 18.0629C18.015 17.7913 17.7571 17.6071 17.4671 17.6071H9.93977C9.3781 17.6071 8.92231 17.1514 8.92231 16.5897V14.0898H14.0602C15.3263 14.0898 16.3576 13.0999 16.445 11.8569H20.211C20.5931 11.8569 20.9016 11.5484 20.9016 11.1663C20.9016 10.7842 20.5931 10.4757 20.211 10.4757H16.4635V8.27969H21.6014C22.1631 8.27969 22.6188 8.73547 22.6188 9.29714V16.5897H22.6142Z" fill="white"/>
<path d="M3.37009 6.8294H10.1194C10.5015 6.8294 10.8099 6.52094 10.8099 6.13882C10.8099 5.7567 10.5015 5.44824 10.1194 5.44824H3.37009C2.98796 5.44824 2.6795 5.7567 2.6795 6.13882C2.6795 6.52094 2.98796 6.8294 3.37009 6.8294Z" fill="white"/>
<path d="M13.4894 9.03921C13.4894 8.65709 13.1809 8.34863 12.7988 8.34863H3.37009C2.98796 8.34863 2.6795 8.65709 2.6795 9.03921C2.6795 9.42134 2.98796 9.7298 3.37009 9.7298H12.7988C13.1809 9.7298 13.4894 9.42134 13.4894 9.03921Z" fill="white"/>
<path d="M20.2064 14.3843H11.8918C11.5097 14.3843 11.2012 14.6927 11.2012 15.0749C11.2012 15.457 11.5097 15.7654 11.8918 15.7654H20.2064C20.5885 15.7654 20.897 15.457 20.897 15.0749C20.897 14.6927 20.5885 14.3843 20.2064 14.3843Z" fill="white"/>
<defs>
<linearGradient id="paint0_linear_55_2792" x1="4.51318" y1="0.269518" x2="37.0166" y2="14.6052" gradientUnits="userSpaceOnUse">
<stop stop-color="#4D65FF"/>
<stop offset="1" stop-color="#FF5AF7"/>
</linearGradient>
</defs>
</svg>
