<svg width="24" height="24" viewBox="0 0 24 24" fill="none" xmlns="http://www.w3.org/2000/svg">
<path d="M5.5 19L0.5 6L7.5 3.5L10 3L15 3.5L16.5 4.5L23.5 7.5L18 20.5L10.5 17L5.5 19Z" fill="url(#paint0_linear_55_2779)"/>
<path d="M23.8966 7.17732C23.7526 6.83623 23.4894 6.57417 23.1521 6.4369L18.9442 4.71478L18.9565 4.59831C19.0059 4.19482 18.8948 3.79965 18.648 3.47935C18.4012 3.15905 18.0475 2.95523 17.6485 2.90531L10.4461 2.01098C9.9319 1.94858 9.44654 2.15657 9.12981 2.52262C8.75139 2.28552 8.27835 2.21064 7.83 2.37287L0.997785 4.83957C0.61936 4.97684 0.319098 5.25138 0.146339 5.61744C-0.0264203 5.98349 -0.046993 6.3953 0.0887464 6.77799L4.27199 18.6207C4.49 19.2404 5.06996 19.6273 5.68696 19.6273C5.8556 19.6273 6.02425 19.5982 6.18878 19.5399L10.3556 18.0341C10.3556 18.0341 10.372 18.0425 10.3802 18.0466L17.3605 20.9002C17.5251 20.9667 17.6978 21 17.8706 21C18.0434 21 18.2326 20.9626 18.4012 20.8918C18.7385 20.7463 18.9976 20.48 19.1334 20.1389L23.9007 8.22141C24.0365 7.88031 24.0323 7.50594 23.8925 7.16484L23.8966 7.17732ZM10.1005 3.3088C10.1293 3.28801 10.1869 3.25057 10.2651 3.25057C10.2774 3.25057 10.2857 3.25057 10.298 3.25057L14.7856 3.80797C14.6211 3.9494 14.4812 4.1241 14.3948 4.34041L14.3784 4.37785C14.3619 4.40696 14.3455 4.43608 14.3332 4.46936L9.66865 16.129C9.66043 16.154 9.6522 16.1831 9.64398 16.208L9.6234 16.2621C9.60695 16.2995 9.59872 16.3411 9.58638 16.3827L8.71025 16.2746C8.61564 16.2621 8.55806 16.2039 8.53338 16.1748C8.5087 16.1415 8.46756 16.0708 8.4799 15.9751L9.9936 3.49183C10.0059 3.39616 10.0635 3.33792 10.0923 3.31296L10.1005 3.3088ZM5.77745 18.3752C5.6376 18.4251 5.48541 18.3503 5.43605 18.213L1.25281 6.37034C1.2199 6.27883 1.24458 6.20395 1.26515 6.16236C1.2816 6.12492 1.32686 6.0542 1.41735 6.02509L8.24956 3.55839C8.27835 3.54591 8.31126 3.54175 8.34005 3.54175C8.45111 3.54175 8.55395 3.61246 8.59097 3.72061L8.67735 3.95772L7.23769 15.8212C7.18833 16.2247 7.29939 16.6198 7.54618 16.9401C7.74362 17.1939 8.00688 17.3727 8.30715 17.4643L5.78569 18.3752H5.77745ZM22.7572 7.768L17.9899 19.6855C17.9734 19.7271 17.9446 19.7479 17.92 19.7563C17.8994 19.7646 17.8624 19.7729 17.8212 19.7563L10.8697 16.9152L10.8245 16.8237C10.808 16.7904 10.7875 16.728 10.7998 16.6531L15.4931 4.91445C15.5589 4.79798 15.6988 4.7439 15.8222 4.79382L18.7796 6.00429L22.6832 7.59745C22.7243 7.61409 22.7449 7.64321 22.7531 7.66817C22.7613 7.69313 22.7696 7.7264 22.7531 7.768H22.7572Z" fill="white"/>
<path d="M17.488 10.5508L16.0401 13.9743C16.0401 13.9743 19.9313 13.0966 19.7009 11.624C19.7009 11.624 19.5446 9.56913 17.488 10.5467V10.5508Z" fill="white"/>
<path d="M15.1764 9.69409C13.9712 10.551 16.0402 13.9703 16.0402 13.9703L17.4798 10.5551C16.7436 8.37546 15.1764 9.69409 15.1764 9.69409Z" fill="white"/>
<defs>
<linearGradient id="paint0_linear_55_2779" x1="4.17287" y1="0.831475" x2="37.3102" y2="16.5476" gradientUnits="userSpaceOnUse">
<stop stop-color="#4D65FF"/>
<stop offset="1" stop-color="#FF5AF7"/>
</linearGradient>
</defs>
</svg>
