<svg width="24" height="24" viewBox="0 0 24 24" fill="none" xmlns="http://www.w3.org/2000/svg">
<path d="M23.7703 12.4634L12.5295 1.22255C12.2328 0.925816 11.755 0.925816 11.4632 1.22255L0.222427 12.4634C0.00616012 12.6796 -0.0592237 13.0015 0.0564537 13.2832C0.172131 13.5648 0.448751 13.7509 0.755547 13.7509H2.6265V22.4519C2.6265 22.8693 2.96348 23.2063 3.38092 23.2063H9.31064C9.72808 23.2063 10.0651 22.8693 10.0651 22.4519V17.1609H13.9327V22.4519C13.9327 22.8693 14.2697 23.2063 14.6871 23.2063H20.6168C21.0343 23.2063 21.3713 22.8693 21.3713 22.4519V13.7509H23.2422C23.549 13.7509 23.8206 13.5648 23.9413 13.2832C24.062 13.0015 23.9916 12.6746 23.7753 12.4634H23.7703ZM20.6118 12.2421C20.1944 12.2421 19.8574 12.5791 19.8574 12.9965V21.6974H15.4365V16.4065C15.4365 15.989 15.0995 15.652 14.6821 15.652H9.30561C8.88817 15.652 8.5512 15.989 8.5512 16.4065V21.6974H4.1303V12.9965C4.1303 12.5791 3.79333 12.2421 3.37589 12.2421H2.57118L11.9964 2.82192L21.4165 12.2421H20.6118Z" fill="white"/>
</svg>
