<svg width="24" height="24" viewBox="0 0 24 24" fill="none" xmlns="http://www.w3.org/2000/svg">
<path d="M6.00001 10C1.20001 7.60001 2.00001 3.33334 3.00001 1.50001C9.00001 1.16667 19.5 2.5 22 2.00001C23.4142 1.71718 21 8.5 18.5 9.50001L13 13.5L13.5 15.5L15 16L16 18.5H17V22H7V18.5H8L8.5 16.5L10.5 15.5L11 13.5C11.3333 13.3333 10.8 12.4 6.00001 10Z" fill="url(#paint0_linear_55_2785)"/>
<path d="M22.9627 2.79382C22.9139 2.03133 22.4596 1.43501 21.6829 1.1222C21.6242 1.09776 21.5656 1.08798 21.507 1.07332C21.4728 1.06843 21.4288 1.05865 21.4191 1.04888L21.3507 1H2.4264L2.41175 1.08798C1.7474 1.30793 1.30287 1.75272 1.08793 2.41258L1 2.42724V4.82226L1.05373 4.84181C1.34683 6.88491 2.32382 8.51744 3.96028 9.6954C4.61486 10.1646 5.39645 10.5312 6.43206 10.8489C6.51999 10.8734 6.53464 10.888 6.5493 10.9125C7.37485 12.2126 8.53259 13.1169 10.0127 13.6154C10.0127 13.8012 10.0127 13.9918 10.0127 14.1775V14.5441C10.0127 14.7787 9.91991 14.94 9.73428 15.0622C9.6317 15.1306 9.49492 15.1404 9.30441 15.1551C8.40558 15.2235 7.67772 15.8589 7.49698 16.7338C7.43836 17.0222 7.44324 17.3057 7.45301 17.5843V17.7065C7.33577 17.7065 7.22342 17.7065 7.10618 17.7065H6.98894C6.44671 17.7114 6.17316 17.99 6.17316 18.5277V19.1484C6.17316 19.9647 6.17316 20.7809 6.17316 21.5972C5.99241 21.5874 5.8019 21.5874 5.55765 21.5972C5.18151 21.6168 4.89819 21.9149 4.8933 22.2913C4.8933 22.6579 5.16686 22.9658 5.53811 23C5.57719 23 5.61139 23 5.66024 23C5.68466 23 5.71397 23 5.74817 23H18.2781C18.3171 23 18.3562 23 18.3953 23C18.8007 22.9804 19.0987 22.6872 19.0987 22.2962C19.0987 21.8954 18.8056 21.5972 18.3953 21.5874C18.2097 21.5825 18.024 21.5777 17.8189 21.5874C17.8238 20.649 17.8189 19.7105 17.8189 18.7721V18.4837C17.8189 17.9949 17.5453 17.7163 17.0568 17.7016H16.9884C16.8468 17.6967 16.7002 17.6918 16.5341 17.7016V17.6039C16.5488 17.3155 16.5586 17.0124 16.4902 16.7094C16.2948 15.8198 15.5913 15.2235 14.6534 15.1502C14.1503 15.1111 13.9793 14.9253 13.9793 14.4219V14.1775C13.9793 13.9967 13.9842 13.8158 13.9793 13.6154H13.994C15.3666 13.1511 16.4657 12.3348 17.2522 11.1813C17.4036 10.9613 17.5697 10.844 17.8531 10.7561C20.193 10.0375 21.7952 8.51255 22.6159 6.21529C23.0409 5.02755 23.0311 3.82026 22.9676 2.79871L22.9627 2.79382ZM7.57514 19.1093C10.511 19.1093 13.4468 19.1093 16.4071 19.1093C16.4022 19.9256 16.4022 20.7418 16.4071 21.5923C15.5816 21.5923 14.756 21.5923 13.9305 21.5923C13.608 21.5923 13.2808 21.5923 12.9583 21.5923H11.0141C9.88083 21.5923 8.74264 21.5923 7.56537 21.5923C7.57514 20.7761 7.57025 19.9549 7.56537 19.1142L7.57514 19.1093ZM13.2417 12.3544C12.7336 12.4863 12.5627 12.7014 12.5676 13.2195V13.6252C12.5676 13.9771 12.5627 14.3388 12.5822 14.7005C12.6408 15.6878 13.4029 16.4601 14.4141 16.5334C14.6095 16.5481 14.7755 16.5628 14.9026 16.6605C15.0491 16.7827 15.1224 16.9196 15.1273 17.0906C15.1273 17.1835 15.1273 17.2813 15.1273 17.3741C15.1273 17.4768 15.1273 17.5794 15.1273 17.6918C14.0233 17.6918 12.9144 17.6918 11.8055 17.6918C10.8285 17.6918 9.84664 17.6918 8.85988 17.6918C8.85988 17.5941 8.85988 17.4963 8.85988 17.3986V17.2324C8.85988 16.7632 9.04062 16.5677 9.49492 16.5383C10.169 16.4943 10.6966 16.2011 11.0776 15.6634C11.3121 15.331 11.4245 14.94 11.4196 14.4708V13.1902C11.4196 12.7063 11.2486 12.4863 10.7699 12.3495C8.79637 11.7874 7.56048 10.497 7.08664 8.51744C6.97429 8.04821 6.93032 7.54966 6.88636 7.06576C6.86682 6.84581 6.84728 6.62586 6.82286 6.40591C6.7447 5.73139 6.67142 5.05688 6.59326 4.38236C6.51999 3.72251 6.44671 3.05776 6.36856 2.39791C7.83892 2.4028 9.31418 2.4028 10.7845 2.4028H13.1244C14.6046 2.4028 16.0847 2.4028 17.6039 2.4028L17.4623 3.61986C17.3108 4.91024 17.1594 6.23972 17.0324 7.55454C16.8956 8.99156 16.456 10.0571 15.6402 10.9174C14.9709 11.6261 14.16 12.1051 13.2319 12.3446L13.2417 12.3544ZM3.60856 2.41258H3.9212C4.25826 2.41258 4.59532 2.41258 4.96169 2.41258C5.17663 4.4068 5.40134 6.39613 5.62604 8.39036C5.65047 8.6152 5.69443 8.84981 5.76282 9.10886C5.53323 9.01111 5.31829 8.8938 5.10335 8.75694C3.39362 7.67185 2.48502 6.07843 2.41175 4.01577C2.40198 3.75183 2.40686 3.483 2.41175 3.21906V3.01866C2.41663 2.65208 2.656 2.41746 3.01748 2.41258C3.21288 2.41258 3.41316 2.41258 3.60856 2.41258ZM18.3758 8.23884C18.4588 7.491 18.5418 6.73828 18.6298 5.99045L18.7812 4.63164C18.8642 3.89358 18.9473 3.15552 19.0254 2.41258C19.2697 2.41258 19.5139 2.41258 19.7533 2.41258C20.1783 2.41258 20.6033 2.41258 21.0332 2.41258C21.3116 2.41258 21.5559 2.63741 21.5656 2.89647C21.6145 3.98645 21.59 5.14486 21.1016 6.22017C20.4909 7.55943 19.5237 8.52722 18.2146 9.11375C18.2829 8.84492 18.3464 8.54677 18.3806 8.23884H18.3758Z" fill="white"/>
<path d="M13.5543 9.48528C13.4615 9.49017 13.3785 9.44618 13.2906 9.40219C12.9193 9.21156 12.5432 9.02583 12.1719 8.82543C12.0498 8.757 11.9472 8.75211 11.8202 8.82543C11.4489 9.02583 11.0728 9.20668 10.7015 9.40219C10.5061 9.50483 10.3156 9.54393 10.13 9.40219C9.95903 9.27022 9.91995 9.08937 9.96391 8.8743C10.0421 8.49306 10.1007 8.10203 10.174 7.72078C10.2033 7.55949 10.1837 7.4324 10.047 7.3151C9.7392 7.04138 9.44611 6.74811 9.14812 6.46462C8.99669 6.32287 8.92342 6.16157 8.99181 5.95629C9.0602 5.74122 9.22628 5.65324 9.43634 5.62392C9.86621 5.56526 10.2961 5.50172 10.7211 5.44796C10.8432 5.43329 10.9214 5.37953 10.9751 5.26711C11.1412 4.92007 11.3219 4.57793 11.488 4.23578C11.5906 4.02072 11.703 3.82032 11.9814 3.81543C12.2696 3.81543 12.382 4.02072 12.4894 4.24556C12.6555 4.5877 12.8314 4.92007 12.9926 5.25733C13.0512 5.37953 13.1294 5.43329 13.2612 5.44796C13.6911 5.50172 14.121 5.56526 14.546 5.62392C14.756 5.65324 14.9172 5.751 14.9808 5.96606C15.0443 6.17135 14.9612 6.33265 14.8147 6.47439C14.5167 6.753 14.2334 7.04138 13.9305 7.31021C13.7888 7.43729 13.7693 7.56437 13.7986 7.73545C13.8768 8.14113 13.95 8.54682 14.0184 8.95251C14.0673 9.25067 13.8523 9.49994 13.5446 9.49506L13.5543 9.48528ZM11.9912 5.29643C11.8593 5.56037 11.7469 5.77544 11.6394 5.99539C11.5515 6.17135 11.4245 6.27888 11.2193 6.30332C10.9751 6.33265 10.7308 6.37664 10.4964 6.41574C10.638 6.57215 10.7553 6.73345 10.9067 6.85564C11.151 7.05604 11.2047 7.29554 11.1363 7.58393C11.0923 7.77455 11.0679 7.97006 11.0288 8.19979C11.2487 8.08737 11.4343 8.00428 11.6053 7.89674C11.8642 7.73545 12.1084 7.72567 12.3722 7.88697C12.5529 7.99939 12.7483 8.08248 12.9584 8.19001C12.9095 7.91141 12.8705 7.67191 12.8314 7.4324C12.7972 7.232 12.8558 7.07071 13.0121 6.92407C13.1782 6.76766 13.3248 6.5917 13.4811 6.42063C13.2661 6.3522 13.0219 6.34242 12.7825 6.30821C12.5627 6.27888 12.4308 6.16646 12.338 5.97584C12.2354 5.76566 12.1279 5.55549 11.996 5.30132L11.9912 5.29643Z" fill="white"/>
<defs>
<linearGradient id="paint0_linear_55_2785" x1="5.46364" y1="-1.10119" x2="37.1035" y2="10.1073" gradientUnits="userSpaceOnUse">
<stop stop-color="#4D65FF"/>
<stop offset="1" stop-color="#FF5AF7"/>
</linearGradient>
</defs>
</svg>
