<svg width="24" height="24" viewBox="0 0 24 24" fill="none" xmlns="http://www.w3.org/2000/svg">
<circle cx="12" cy="12" r="10" fill="url(#paint0_linear_55_2799)"/>
<path d="M5.125 18.6824C5.3985 17.6542 5.7514 16.663 6.3734 15.8008C7.00421 14.9248 7.76295 14.2056 8.69373 13.6938C8.92312 13.5694 8.98047 13.5094 8.77755 13.2651C7.64826 11.928 7.30859 10.3789 7.86882 8.68687C8.42465 6.99944 9.60687 5.99436 11.2832 5.65779C13.6564 5.1783 16.0782 7.0732 16.3473 9.58591C16.4973 10.9921 16.1224 12.2093 15.2401 13.2697C15.1298 13.3988 14.9622 13.491 15.2401 13.6523C17.1502 14.7404 18.3456 16.3956 18.8309 18.6132C18.8353 18.6409 18.8618 18.6639 18.875 18.687C18.3809 19.3232 17.7854 19.8304 17.1149 20.2499C17.1105 20.1623 17.1017 20.0747 17.1017 19.9825C17.0134 16.1189 13.1403 13.6062 9.81862 15.2983C7.87324 16.2895 6.92922 17.9908 6.88952 20.2453C6.219 19.8304 5.62347 19.3186 5.12941 18.6824H5.125ZM12.011 7.56191C10.6171 7.5573 9.47894 8.71914 9.47012 10.153C9.4613 11.6053 10.6082 12.8132 12.0022 12.8086C13.3741 12.8086 14.5034 11.6283 14.521 10.1807C14.5387 8.76064 13.3918 7.56652 12.011 7.56191Z" fill="white"/>
<path d="M12 23C5.93416 23 1 18.0658 1 12C1 5.93416 5.93416 1 12 1C18.0658 1 23 5.93416 23 12C23 18.0658 18.0658 23 12 23ZM12 2.35802C6.68107 2.35802 2.35802 6.68107 2.35802 12C2.35802 17.3189 6.68107 21.642 12 21.642C17.3189 21.642 21.642 17.3189 21.642 12C21.642 6.68107 17.3189 2.35802 12 2.35802Z" fill="white"/>
<defs>
<linearGradient id="paint0_linear_55_2799" x1="5.1938" y1="-0.478314" x2="36.4236" y2="10.7913" gradientUnits="userSpaceOnUse">
<stop stop-color="#4D65FF"/>
<stop offset="1" stop-color="#FF5AF7"/>
</linearGradient>
</defs>
</svg>
